<?xml version="1.0" encoding="UTF-8"?>
<svg id="Layer_1" xmlns="http://www.w3.org/2000/svg" version="1.1" viewBox="0 0 288 288">
  <!-- Generator: Adobe Illustrator 29.1.0, SVG Export Plug-In . SVG Version: 2.1.0 Build 142)  -->
  <defs>
    <style>
      .st0 {
        fill: #2e9ba0;
      }

      .st1 {
        fill: #e54361;
      }

      .st2 {
        fill: #c8c8c7;
      }

      .st3 {
        fill: #fff;
      }

      .st4 {
        fill: #009ade;
      }

      .st5 {
        fill: #888a8d;
      }

      .st6 {
        fill: #ff8200;
      }

      .st7 {
        fill: #3d3935;
      }
    </style>
  </defs>
  <path class="st5" d="M270.9,116.3c-1.5-2.4-3.2-4.5-5.1-6.2v-22.5h-55v-19h-23.3v-4.5h-8.8c-5.6-14-19.2-23.8-35.1-23.8s-29.5,9.8-35.1,23.7h-8.8v4.5h-23.3v19H21.4v23.1c-1.6,1.6-3.1,3.5-4.3,5.6-4.6,7.2-7.1,16.7-7.1,26.8s2.5,19.6,7.1,26.8c1.4,2.1,2.9,4,4.3,5.6v25.2h55v19h23.3v4.5h8.8c5.6,13.9,19.2,23.7,35.1,23.7s29.5-9.8,35.1-23.7h8.8v-4.5h23.3v-19h55v-24.4c1.9-1.7,3.6-3.8,5.1-6.2,4.6-7.2,7.1-16.7,7.1-26.8s-2.5-19.6-7.1-26.8h0Z"/>
  <path class="st7" d="M260.8,112.4v-10.5c-5.1,0-9.2-4.1-9.2-9.2h-45.8v-19h-23.3v-4.5h-7.3c-3.8-13.8-16.5-23.7-31.4-23.7s-27.5,10-31.4,23.7h-7.3v4.5h-23.3v19h-45.9c0,5.1-4.1,9.2-9.2,9.2v11c-6.8,5.7-11.4,17-11.4,30.2s4.6,24.4,11.4,30.2v13c5.1,0,9.2,4.1,9.2,9.2h45.8v19h23.3v4.5h7.4c3.8,13.8,16.4,23.7,31.3,23.7s27.4-10.1,31.4-23.7h7.4v-4.5h23.3v-19h45.8c0-5.1,4.1-9.2,9.2-9.2v-12.5c7.2-5.5,12.2-17.1,12.2-30.6s-5-25.2-12.2-30.6Z"/>
  <path class="st3" d="M174.9,126.7c1.4,0,2.2-.6,2.5-2l.9-5.5h-19.5l-6.9,39.7h6.6c1.4,0,2.2-.6,2.5-2l2.4-13.4h6.8c1.4,0,2-.6,2.5-2l1.7-5.5h-9.8l1.7-9.7h8.7v.2Z"/>
  <path class="st3" d="M174.9,126.7c1.4,0,2.2-.6,2.5-2l.9-5.5h-19.5l-6.9,39.7h6.6c1.4,0,2.2-.6,2.5-2l2.4-13.4h6.8c1.4,0,2-.6,2.5-2l1.7-5.5h-9.8l1.7-9.7h8.7v.2ZM200.6,119.2h-13.8l-5.6,4.2-5.5,31.3,4.1,4.2h13.8l5.6-4.2,5.5-31.3-4.1-4.2ZM195.2,127.7l-4,22.8c0,.6-.5,1.1-1.2,1.1h-4c-.6,0-.9-.4-.7-1l4-22.8c0-.6.5-1.1,1.2-1.1h4c.6,0,.9.4.7,1ZM225.1,119.2l-5.5,31.3c0,.6-.5,1.1-1.2,1.1h-3.7c-.6,0-.9-.4-.7-1l5.5-31.3h-8.7l-6.2,35.5,4.1,4.2h13.4l5.6-4.2,6.2-35.5h-8.7ZM261.9,123.6l-4.1-4.2h-18.6l-6.9,39.7h6.6c1.4,0,2.2-.6,2.5-2l2.2-12.4h2.9l2.6,14.4h7.2c1.1,0,1.7-.7,1.5-2l-2.6-13.6,4-3,3-16.9h-.1ZM252.4,127.7l-1.5,8.6c0,.6-.5,1.1-1.2,1.1h-5l1.9-10.7h5.1c.6,0,.9.4.7,1h0Z"/>
  <path class="st3" d="M54.8,126.7c1.4,0,2.2-.6,2.5-2l.9-5.5h-19.5l-6.9,39.7h6.6c1.4,0,2.2-.6,2.5-2l2.4-13.4h6.8c1.4,0,2-.6,2.5-2l1.7-5.5h-9.8l1.7-9.7h8.7v.2ZM62.2,119.2l-6.9,39.7h6.6c1.4,0,2.2-.6,2.5-2l6.7-37.8h-8.8ZM92.1,119.2l-3.7,21.5-4.1-21.5h-8.1l-6.9,39.7h6c1.4,0,2.2-.6,2.5-2l3.4-19.5,3.7,19.5c.2,1.2,1,2,2.1,2h6.3l6.9-39.7s-8.1,0-8.1,0ZM120.1,119.2h-10.7l-12.8,39.7h7.1c1.4,0,2-.6,2.4-1.9l1.5-5.2h5.6l-.5,7.1h8.9l.9-37.5c0-1.4-.9-2.2-2.2-2.2h-.1ZM113.5,144.9h-4.1l5.3-18.7-1.2,18.7ZM134.7,151.6l5.7-32.4h-8.7l-6.9,39.7h15.5c1.4,0,2.2-.6,2.5-2l.9-5.5h-8.9Z"/>
  <g>
    <path class="st0" d="M95.9,110.8l1.2-1h4.7c0-.1.2-1.2.2-1.2h0c0-.1-3.1-.1-3.1-.1h-.1v.6h-2.4l.2-1.1,1.4-1.1h5.8l1,1.2-.4,2.4-1.2,1h-4.7c0,.1-.1,1.1-.1,1.1h5.7l-.2,1.6h-8.2l.6-3.2h-.5Z"/>
    <path class="st0" d="M105.8,112.7l.9-4.6,1.6-1.4h5.8l1.1,1.4-.9,4.6-1.6,1.4h-5.8l-1.1-1.4ZM111.5,112.4l.6-.5.6-3.2-.4-.5h-2.7l-.6.5-.6,3.2.4.5h2.7Z"/>
    <path class="st0" d="M117,110.8l1.2-1h4.7c0-.1.2-1.2.2-1.2h0c0-.1-3.1-.1-3.1-.1h-.1v.6h-2.4l.2-1.1,1.4-1.1h5.8l1,1.2-.4,2.4-1.2,1h-4.7c0,.1-.1,1.1-.1,1.1h5.7l-.2,1.6h-8.2l.6-3.2h-.5Z"/>
    <path class="st0" d="M127,112.9l.2-1.1h2.4v.5h0c0,.1,3.1.1,3.1.1l.2-.2.2-1.5h0c0-.1-3-.1-3-.1l-.4.4h-2.4l.7-4.3h7.9l-.2,1.6h-5.6l-.2,1.4.6-.5h4.2l.9,1.1-.5,2.5-1.4,1.2h-5.8l-1-1.1h-.1Z"/>
    <path class="st0" d="M142.1,112.5h.9l.7-4.3h-.9l.2-1.5h4.5l.9,5,2.7-5h4.5l-.2,1.5h-.9l-.7,4.3h.9l-.2,1.5h-4l.2-1.5h.9l.7-4.5-2.9,5.3h-2.6l-1-5.3-.7,4.5h.9l-.2,1.5h-3.8l.2-1.5h0Z"/>
    <path class="st0" d="M156.7,112.5h.9l.7-4.3h-.9l.2-1.5h8.4l-.4,2.2h-2.1v-.7c.1,0-2.9,0-2.9,0l-.2,1.4h4.1l-.2,1.5h-4.1l-.2,1.5h3.1v-.9h2.2l-.4,2.2h-8.4l.2-1.5h-.1Z"/>
    <path class="st0" d="M167.1,112.5h.9l.7-4.3h-.9l.2-1.5h4l2,5,.6-3.5h-1l.2-1.5h4l-.2,1.5h-.9l-1,5.8h-3.1l-2-5-.6,3.5h1l-.2,1.5h-3.8l.2-1.5h-.1Z"/>
    <path class="st0" d="M181.5,109.4l-.7.7h-1.4v-.9h1v-.6h-.9l.4-2h2.1l-.5,2.7Z"/>
    <path class="st0" d="M183,112.9l.2-1.1h2.4v.7h3.1l.2-.2v-1c.1,0,0-.1,0-.1h-4.6l-.9-1,.4-2.2,1.4-1.2h5.8l1,1.1-.2,1.1h-2.4v-.7h-3l-.2.2v1c-.1,0,0,.1,0,.1h4.6l.9,1-.4,2.2-1.4,1.2h-6l-.9-1.1h-.1Z"/>
  </g>
  <path class="st6" d="M35.2,181.5v-8.3h-2.7v9.8l.7.4c2.4,1.2,4.3,3.2,5.6,5.6l.4.7h89.5c1.6-1.1,3.3-2,5.1-2.7H40.6c-1.4-2.2-3.2-4.2-5.6-5.6h.1ZM35.2,107c2.2-1.4,4.2-3.2,5.6-5.6h92.2c-.9-.4-1.6-.7-2.4-1.2-.9-.5-1.6-1-2.4-1.5H39.2l-.4.7c-1.2,2.4-3.2,4.3-5.6,5.6l-.7.4v9.6h2.7s0-7.9,0-7.9ZM252.2,181.5c-2.2,1.4-4.2,3.2-5.6,5.6h-92.9c1.1.4,2.1.9,3.2,1.5.6.4,1.2.7,1.9,1.2h89.5l.4-.7c1.2-2.4,3.2-4.3,5.6-5.6l.7-.4v-9.8h-2.7v8.3h0ZM254.2,105c-2.4-1.2-4.3-3.2-5.6-5.6l-.4-.7h-89c-1.5,1.1-3.1,2-4.8,2.7h92.2c1.4,2.2,3.2,4.2,5.6,5.6v7.9h2.7v-9.6s-.7-.4-.7-.4Z"/>
  <g id="NCAA_DIsk_4C">
    <g>
      <path class="st3" d="M160,78.2c0,9.1-7.3,16.5-16.5,16.5s-16.5-7.3-16.5-16.5,7.3-16.5,16.5-16.5,16.5,7.3,16.5,16.5"/>
      <path class="st4" d="M156.2,85.9h1.9c-2.7,5.2-8.2,8.8-14.5,8.8-9.1,0-16.5-7.3-16.5-16.5s7.3-16.5,16.5-16.5,16.5,7.3,16.5,16.5-.5,4.7-1.5,6.8l-.5-6.9h-4.2l-.5,1.7h.6l-2.1,3.4-.2-5.1h-4.3l-.5,1.7h.6l-2.9,4.3h-2.4c-.2,0-1.2-.2-1.2-1.4s1.1-2.9,2.2-2.9h.5c0,.2-.2.9-.2.9h2.1l.7-2.7h-3.2c-2,0-3.6,1.4-4.1,2.9l.9-2.9h-2.9l-.5,1.7h.7l-.7,2.6-1.9-4.3h-2.6l-.5,1.7h.7l-1.6,6h2.1s.9-3,1-3.7c.2.7,1.5,3.7,1.5,3.7h2.4l1.1-3.8v1.7c.2,1.2,1.4,2.1,2.7,2.1h4.3l.7-1.1h3v1.1h2.7l.7-1.1h3.1v1.1h.1ZM154.3,82.9h1.7v-2.5l-1.7,2.5ZM147.7,82.9h1.7v-2.5l-1.7,2.5Z"/>
      <path class="st4" d="M160,85.9c-.7,0-1.4.6-1.4,1.4s.6,1.4,1.4,1.4,1.4-.6,1.4-1.4-.6-1.4-1.4-1.4M161,87.2c0,.6-.5,1-1,1s-1-.5-1-1,.5-1,1-1,1,.5,1,1"/>
      <path class="st4" d="M160.6,86.9c0-.2-.2-.5-.5-.5h-.6v1.5h.2v-.6h.2l.4.6h.4l-.4-.6c.1,0,.4-.1.4-.5M160.3,86.9c0,.1,0,.2-.2.2h-.4v-.5h.4s.2,0,.2.2"/>
    </g>
  </g>
  <g>
    <rect class="st6" x="69.6" y="176.4" width="11.5" height="2.7"/>
    <rect class="st1" x="58" y="176.4" width="11.5" height="2.7"/>
    <rect class="st0" x="46.4" y="176.4" width="11.5" height="2.7"/>
  </g>
  <g>
    <rect class="st6" x="206.2" y="176.4" width="11.5" height="2.7"/>
    <rect class="st1" x="217.7" y="176.4" width="11.5" height="2.7"/>
    <rect class="st0" x="229.4" y="176.4" width="11.5" height="2.7"/>
  </g>
  <g>
    <rect class="st6" x="69.6" y="109.1" width="11.5" height="2.7"/>
    <rect class="st1" x="58" y="109.1" width="11.5" height="2.7"/>
    <rect class="st0" x="46.4" y="109.1" width="11.5" height="2.7"/>
  </g>
  <g>
    <rect class="st6" x="206.2" y="109.1" width="11.5" height="2.7"/>
    <rect class="st1" x="217.7" y="109.1" width="11.5" height="2.7"/>
    <rect class="st0" x="229.4" y="109.1" width="11.5" height="2.7"/>
  </g>
  <g>
    <path class="st0" d="M88.4,180.3l.2-1.1h2.4v.7h3.1l.2-.2v-1c.1,0,0-.1,0-.1h-4.6l-.9-1,.4-2.2,1.4-1.2h5.8l1,1.1-.2,1.1h-2.4v-.7h-3l-.2.2v1c-.1,0,0,.1,0,.1h4.6l.9,1-.4,2.2-1.4,1.2h-6l-.9-1.1h-.1Z"/>
    <path class="st0" d="M98.7,179.9h.6l2.6-4.3h-1.1l.2-1.5h6.9l-.2,1.5h-1.1l1.1,4.3h.6l-.2,1.5h-3.8l.2-1.4h.9v-.9h-3.3l-.5.9h.9l-.2,1.4h-3.7s.2-1.5.2-1.5ZM102.7,177.8h2.1l-.5-2.2h-.4s-1.2,2.2-1.2,2.2Z"/>
    <path class="st0" d="M110.4,179.9h.9l.7-4.3h-.9l.2-1.5h4l2,5,.6-3.5h-1l.2-1.5h4l-.2,1.5h-.9l-1,5.8h-3.1l-2-5-.6,3.5h1l-.2,1.5h-3.8l.2-1.5h-.1Z"/>
    <path class="st0" d="M126.6,179.9h.6l2.6-4.3h-1.1l.2-1.5h6.9l-.2,1.5h-1.1l1.1,4.3h.6l-.2,1.5h-3.8l.2-1.4h.9v-.9h-3.3l-.5.9h.9l-.2,1.4h-3.7s.2-1.5.2-1.5ZM130.6,177.8h2.1l-.5-2.2h-.4s-1.2,2.2-1.2,2.2Z"/>
    <path class="st0" d="M138.3,179.9h.9l.7-4.3h-.9l.2-1.5h4l2,5,.6-3.5h-1l.2-1.5h4l-.2,1.5h-.9l-1,5.8h-3.1l-2-5-.6,3.5h1l-.2,1.5h-3.8l.2-1.5h-.1Z"/>
    <path class="st0" d="M151.8,179.9h1.4l.7-4.3h-1.2l-.2,1.4h-1.9l.5-2.9h8.6l-.5,2.9h-1.9l.2-1.4h-1.2l-.7,4.3h1.4l-.2,1.5h-5l.2-1.5h-.1Z"/>
    <path class="st0" d="M160.6,180l.9-4.6,1.6-1.4h5.8l1.1,1.4-.9,4.6-1.6,1.4h-5.8l-1.1-1.4ZM166.3,179.8l.6-.5.6-3.2-.4-.5h-2.7l-.6.5-.5,3.2.4.5h2.7-.1Z"/>
    <path class="st0" d="M171.3,179.9h.9l.7-4.3h-.9l.2-1.5h4l2,5,.6-3.5h-1l.2-1.5h4l-.2,1.5h-.9l-1,5.8h-3.1l-2-5-.6,3.5h1l-.2,1.5h-3.8l.2-1.5h-.1Z"/>
    <path class="st0" d="M183.1,179.9h1l.7-4.3h-1l.2-1.5h4.3l-.2,1.5h-1l-.7,4.3h1l-.2,1.5h-4.3l.2-1.5Z"/>
    <path class="st0" d="M189.5,180l.9-4.6,1.6-1.4h5.8l1.1,1.4-.9,4.6-1.6,1.4h-5.8l-1.1-1.4ZM195.2,179.8l.6-.5.5-3.2-.4-.5h-2.7l-.6.5-.6,3.2.4.5h2.9Z"/>
  </g>
  <g>
    <path class="st1" d="M237.1,162.7h-3.8c-.2,0-.5,0-.6.2l-4.1,4.1c-.6.6-.1,1.6.6,1.6h3.8c.2,0,.5,0,.6-.2l4.1-4.1c.6-.6.1-1.6-.6-1.6Z"/>
    <path class="st1" d="M254.4,162.7h-4.5c-.2,0-.5,0-.6.2l-4.1,4.1c-.6.6-.1,1.6.6,1.6h4.5c.2,0,.5,0,.6-.2l4.1-4.1c.6-.6.1-1.6-.6-1.6Z"/>
    <path class="st1" d="M191.8,162.7h-11c-.2,0-.5,0-.6.2l-4.1,4.1c-.6.6-.1,1.6.6,1.6h11c.2,0,.5,0,.6-.2l4.1-4.1c.6-.6.1-1.6-.6-1.6Z"/>
    <path class="st1" d="M156.5,162.7h-3.8c-.2,0-.5,0-.6.2l-4.1,4.1c-.6.6-.1,1.6.6,1.6h3.8c.2,0,.5,0,.6-.2l4.1-4.1c.6-.6.1-1.6-.6-1.6Z"/>
    <path class="st1" d="M220.3,162.7h-10.8c-.2,0-.5,0-.6.2l-4.1,4.1c-.6.6-.1,1.6.6,1.6h10.8c.2,0,.5,0,.6-.2l4.1-4.1c.6-.6.1-1.6-.6-1.6Z"/>
    <path class="st1" d="M36.8,162.3h-3.8c-.2,0-.5,0-.6.2l-4.1,4.1c-.6.6-.1,1.6.6,1.6h3.8c.2,0,.5,0,.6-.2l4.1-4.1c.6-.6.1-1.6-.6-1.6Z"/>
    <path class="st1" d="M59.3,162.3h-3.8c-.2,0-.5,0-.6.2l-4.1,4.1c-.6.6-.1,1.6.6,1.6h3.8c.2,0,.5,0,.6-.2l4.1-4.1c.6-.6.1-1.6-.6-1.6Z"/>
    <path class="st1" d="M74.5,162.3h-3.8c-.2,0-.5,0-.6.2l-4.1,4.1c-.6.6-.1,1.6.6,1.6h3.8c.2,0,.5,0,.6-.2l4.1-4.1c.6-.6.1-1.6-.6-1.6Z"/>
    <path class="st1" d="M90.2,162.3h-3.8c-.2,0-.5,0-.6.2l-4.1,4.1c-.6.6-.1,1.6.6,1.6h3.8c.2,0,.5,0,.6-.2l4.1-4.1c.6-.6.1-1.6-.6-1.6Z"/>
    <path class="st1" d="M101.2,162.3h-3.8c-.2,0-.5,0-.6.2l-4.1,4.1c-.6.6-.1,1.6.6,1.6h3.8c.2,0,.5,0,.6-.2l4.1-4.1c.6-.6.1-1.6-.6-1.6Z"/>
    <path class="st1" d="M118.7,162.3h-3.8c-.2,0-.5,0-.6.2l-4.1,4.1c-.6.6-.1,1.6.6,1.6h3.8c.2,0,.5,0,.6-.2l4.1-4.1c.6-.6.1-1.6-.6-1.6Z"/>
    <path class="st1" d="M137.4,162.7h-10.8c-.2,0-.5,0-.6.2l-4.1,4.1c-.6.6-.1,1.6.6,1.6h10.8c.2,0,.5,0,.6-.2l4.1-4.1c.6-.6.1-1.6-.6-1.6Z"/>
  </g>
  <path class="st1" d="M154.7,192.2c-10.9-6.1-24.7-2.1-30.8,8.7-2.4,4.2-3.2,8.9-2.7,13.5h44.9c1-8.8-3.2-17.6-11.4-22.2h0Z"/>
  <path class="st6" d="M154.7,192.2c-6.6-3.7-14.3-3.7-20.6-.7-1.1,2.5-1.7,5.2-1.7,8.2,0,5.8,2.5,11.2,6.5,14.8h27.3c1-8.8-3.2-17.6-11.4-22.2Z"/>
  <path class="st7" d="M256.3,92.8c0,2.4,2,4.3,4.3,4.3v-4.3h-4.3Z"/>
  <path class="st7" d="M31,92.8c0,2.4-2,4.3-4.3,4.3v-4.3h4.3Z"/>
  <path class="st7" d="M256.3,195.4c0-2.4,2-4.3,4.3-4.3v4.3h-4.3Z"/>
  <path class="st7" d="M31,195.4c0-2.4-2-4.3-4.3-4.3v4.3h4.3Z"/>
  <path class="st5" d="M176.1,215.2c.1-.7-.4-1.5-1.1-1.6-.7-.1-1.5.4-1.6,1.1l-1.6,7.7-2-7.8c-.1-.5-.6-.9-1.1-1-.5,0-1.1.1-1.4.6l-8.3,13.2-4.5-12.9c-.1-.5-.6-.9-1.1-.9s-1,.2-1.4.6l-8.6,13.6-8.6-13.6c-.2-.5-.7-.7-1.4-.6-.5,0-1,.4-1.1.9l-4.5,12.9-8.3-13.2c-.2-.5-.9-.7-1.4-.6-.5,0-1,.5-1.1,1l-2,7.8-1.6-7.7c-.1-.7-.9-1.2-1.6-1.1-.7.1-1.2.9-1.1,1.6l3.7,18.5c.4.5.9,1,1.2,1.5h.4c.7-.1,1.2-.9,1.1-1.6l-1-5,2.6-10.3,7.4,11.8-8.2,6.3c-.2.1-.4.4-.4.6.6.6,1.2,1.1,1.9,1.7,0,0,.1,0,.2-.1l8.2-6.5,6.1,5.1-5.1,4.8c-.5.5-.5,1.4,0,2,.2.2.6.4,1,.4s.7-.1,1-.4l5.2-5.1,6.1,5.1h1.2l6.1-5.1,5.2,5.1c.2.2.6.4,1,.4s.7-.1,1-.4c.5-.5.5-1.4,0-2l-5.1-4.8,6.1-5.1,8.2,6.5s.1,0,.2.1c.6-.5,1.2-1.1,1.9-1.6,0-.2-.2-.5-.5-.6l-8.2-6.3,7.4-11.8,2.6,10.3-1,5c-.1.7.4,1.5,1.1,1.6h.5c.4-.5.7-.9,1.1-1.4l3.8-18.6h1ZM136.6,235.3l-6.3-5.3,4.1-12,7.6,12.2-5.3,5.2ZM143.6,241.2l-5-4.2,5-4.8,5,4.8-5,4.2ZM150.8,235.3l-5.3-5.2,7.6-12.2,4.1,12-6.3,5.3Z"/>
  <g>
    <path class="st5" d="M122,66.4l-2-1.5c-.4-.2-.9-.1-1.1.2-1.2,2.1-2.1,4.3-2.9,6.7-.1.6.2,1.2.7,1.2l2.5.2c.4,0,.7-.2.9-.6.5-1.7,1.2-3.5,2.2-5.1.2-.5.1-1-.2-1.4h-.1Z"/>
    <path class="st5" d="M168.1,73.3l2.5-.2c.5,0,.9-.6.7-1.2-.7-2.4-1.6-4.6-2.9-6.7-.2-.5-.7-.5-1.1-.2l-2,1.5c-.4.2-.5.9-.2,1.4.9,1.6,1.6,3.2,2.2,5.1.1.4.5.6.9.6h-.1Z"/>
    <path class="st5" d="M171.7,78.3c0-.5-.5-.9-1-.9l-2.4.4c-.5,0-.7.5-.7,1.1.2,1.9.2,3.7,0,5.6,0,.5.1.9.5,1l2.2,1c.5.2,1.1-.1,1.1-.7.2-2.5.2-5,0-7.4h.2Z"/>
    <path class="st5" d="M118.9,77.8l-2.4-.4c-.5,0-.9.2-1,.9-.2,2.5-.2,5,0,7.4,0,.6.6,1,1.1.7l2.2-1c.4-.1.6-.6.5-1-.1-1.9-.1-3.7,0-5.6,0-.5-.2-1-.7-1.1h.2Z"/>
    <path class="st5" d="M158.9,55.3h0c-8.6-6.9-22.8-6.6-31.3.5-.2.1-.4.4-.6.5-1.4,1.1-2.6,2.4-3.8,3.7-.4.5-.2,1.1.2,1.5l2.1,1.4c.4.2.7.1,1-.1,1.1-1.4,2.5-2.5,3.8-3.5.4-.2.5-.9.2-1.4l-.9-1.6c1.1-.5,2.2-1,3.3-1.4h.2l.7,1.4c.2.4.6.5,1,.4,1.5-.6,3.1-1.1,4.8-1.4.9,0,1.5-.9,1.5-1.9h4v.6c0,.6.4,1,.9,1.1,1.9.2,3.7.7,5.5,1.5.4.1.9,0,1-.4l.6-1.2c1.2.4,2.5.9,3.6,1.5l-.7,1.5c-.2.5,0,1,.2,1.4,1.4,1,2.7,2.1,3.8,3.5.2.2.7.4,1,.1l2.1-1.4c.5-.4.6-1,.2-1.5-1.5-1.7-3.2-3.3-5.1-4.7h.4Z"/>
  </g>
  <polygon class="st1" points="109.4 84.5 104.9 84.5 104.9 78.9 88.4 78.9 88.4 81.5 102.2 81.5 102.2 90.1 88.4 90.1 88.4 92.8 104.9 92.8 104.9 87.2 109.4 87.2 109.4 84.5"/>
  <polygon class="st1" points="198.8 81.5 198.8 78.9 182.5 78.9 182.5 84.5 177.9 84.5 177.9 87.2 182.5 87.2 182.5 92.8 198.8 92.8 198.8 90.1 185.2 90.1 185.2 81.5 198.8 81.5"/>
  <g>
    <path class="st3" d="M258.5,143.2c0-.2-.1-.4-.5-.4h-.5v1.2h.2v-.5h.2l.4.5h.2l-.4-.5c.1,0,.4,0,.4-.4h-.1ZM257.8,143.4v-.4h.2c.1,0,.2,0,.2.1s-.1.2-.2.2c0,0-.2,0-.2,0Z"/>
    <path class="st3" d="M258,142.4c-.6,0-1.1.5-1.1,1.1s.5,1.1,1.1,1.1,1.1-.5,1.1-1.1-.5-1.1-1.1-1.1ZM258,144.4c-.5,0-.9-.4-.9-.9s.4-.9.9-.9.9.4.9.9-.4.9-.9.9Z"/>
  </g>
  <path class="st2" d="M70.8,119.2l-4.5,3.7-5.5,30.8,3,4.2c.1-.2.4-.6.4-1l6.7-37.8h-.1Z"/>
  <polygon class="st2" points="199.6 125.3 204.7 123.6 199.1 154.7 194.9 151.6 199.6 125.3"/>
  <polygon class="st2" points="134.7 151.6 140.4 119.2 140.2 119.2 135.6 123.1 129.9 153.9 131.2 155.2 134.7 151.6 134.7 151.6"/>
  <path class="st2" d="M121.5,119.7l-3.1,3.3-.9,31.6,3.8,4.2.9-36.2v-1.5c0-.6-.2-1.2-.7-1.5ZM103.1,153.9l1.9,4.7c.5-.2.7-.7,1-1.5l1.5-5.2-1.6-3.5,3.6-3.5,5.2-18.6.7-6.9-3,3.7-9.2,30.8h-.1Z"/>
  <polygon class="st2" points="228.9 123.1 223.5 151.6 227.6 154.7 233.8 119.2 228.9 123.1"/>
  <polygon class="st1" points="189.4 195.4 191 200.5 196.2 200.5 192 203.6 193.6 208.6 189.4 205.5 185.1 208.6 186.7 203.6 182.5 200.5 187.8 200.5 189.4 195.4"/>
  <polygon class="st1" points="98 195.4 99.6 200.5 104.9 200.5 100.6 203.6 102.2 208.6 98 205.5 93.6 208.6 95.4 203.6 91 200.5 96.4 200.5 98 195.4"/>
  <path class="st7" d="M166.1,202.7c.1,0,.4.1.5.1-.5-1.4-1.2-2.7-2-4-2.2-.5-4.3-.1-6,1.1-.4.2-.6.6-1,1-1.1-1-2.5-1.9-3.8-2.7.6-3.6.4-6.8-.6-9.1-1.4-.6-2.7-1-4.2-1.4,0,.5,0,1,.5,1.2,1.4,1.2,1.9,4,1.4,7.4-1.4-.7-2.9-1.2-4.3-1.6,0-.4,0-.7-.1-1.1-.6-2.7-3-5.1-6.1-6.5-2.1.2-4.2.9-6.3,1.7.2,0,.5.2.7.2,4.1,0,7.7,2.2,8.6,5-4-.5-8.1,0-12.2,1.5-4,1.5-7.6,3.7-10.5,6.6-1,2.4-1.6,4.7-1.7,7.1,3.2-5,7.8-8.8,13.3-10.8,3.6-1.2,7.2-1.7,10.7-1.2-.7,1.2-2,2.5-4,3.6-1.2.7-2.6,1.4-4.1,2.1-5.5,2.7-11.5,6-14.8,11.3h3.7c2.9-3.6,7.7-6.1,12.5-8.6,1.4-.7,2.9-1.5,4.2-2.2,1.5-.9,4.5-2.9,5.6-5.7,1.5.4,2.9,1,4.1,1.6h0c-1.1,4.7-3.5,9.8-7.1,14.6h3.7c3-4.3,5-8.8,6.1-13,1.1.7,2.1,1.5,3.1,2.4-.7,2.5-.5,5.8.6,9.7,0,.4.2.6.2,1h3.2c-.1-.6-.4-1.2-.5-1.9-.7-2.4-1-4.3-1-6.1,1.9,2.2,3.3,4.8,4.5,7.9h3.2c-1.4-4.5-3.6-8.2-6.7-11.4.1-.2.4-.5.6-.6,1.2-1,3.2-.9,5.5.4l.5.2Z"/>
  <path class="st6" d="M176.4,215.8h-65.4c-.7,0-1.4-.6-1.4-1.4s.6-1.4,1.4-1.4h65.4c.7,0,1.4.6,1.4,1.4s-.6,1.4-1.4,1.4Z"/>
  <path class="st2" d="M42.4,125l-3,16.6h0l-2.1,12.3,2.9,4.5c.4-.4.6-.7.6-1.2l2.4-13.4-2.5-3.6,3.7-3.8,1.7-9.6-2.1-3.6s-1.6,1.9-1.6,1.9ZM49.5,140.1l1.9,3.2c.5-.4.9-.9,1.1-1.5l1.7-5.5-4.7,3.8h0Z"/>
  <path class="st2" d="M96,123.3l-5.5,30.5,2.9,5.1,6.9-39.7-4.2,4.1h-.1ZM80,123.1l-5.3,30.8,2.4,4.6c.4-.4.6-.7.7-1.4l3.4-19.5.5-14.5,5.5,25.9,1.5-8.2-4.1-21.5-4.3,3.7h-.1Z"/>
  <g>
    <path class="st2" d="M162.4,125l-5.1,28.9,2.9,4.6c.4-.4.6-.7.7-1.4l2.4-13.4-2.6-3.6,3.8-3.8,1.7-9.7-2.2-3.6-1.6,1.9h0Z"/>
    <path class="st2" d="M169.4,140.1l2,3.2c.5-.4.9-.9,1.1-1.6l1.7-5.5s-4.8,3.8-4.8,3.8Z"/>
  </g>
  <path class="st2" d="M180.5,154.7l4.7-3.3c-.1-.1-.2-.5-.1-.7l4-22.8c0-.2.1-.5.4-.7l-3.3-4s-5.6,31.6-5.6,31.6Z"/>
  <path class="st2" d="M209.5,151.6h5.2c-.6,0-.9-.4-.7-1l5.5-31.3-5.1,3.7-4.8,28.5h0Z"/>
  <path class="st2" d="M254.9,143.4l-4.1-.9,2.1,11.3,4.5,4.5c.2-.4.2-.7.1-1.4l-2.6-13.6h0ZM257.3,129.2l-1.4,8.1,3,3.1,3-16.9-4.6,5.6h0ZM238.2,153.9l2.6,4.2c.2-.2.4-.6.4-1l2.2-12.4-2-4.6,3.2-2.7,1.9-10.7-3-3.6-5.5,30.8h.1Z"/>
</svg>